<mxfile host="app.diagrams.net" modified="2020-05-05T11:13:42.943Z" agent="5.0 (Macintosh; Intel Mac OS X 10_15_4) AppleWebKit/537.36 (KHTML, like Gecko) Chrome/81.0.4044.129 Safari/537.36" etag="vdK2dAohqfgBAGUzkBvM" version="13.0.7" type="github">
  <diagram name="Page-1" id="c7558073-3199-34d8-9f00-42111426c3f3">
    <mxGraphModel dx="1186" dy="741" grid="1" gridSize="10" guides="1" tooltips="1" connect="1" arrows="1" fold="1" page="1" pageScale="1" pageWidth="826" pageHeight="1169" background="#ffffff" math="0" shadow="0">
      <root>
        <mxCell id="0" />
        <mxCell id="1" parent="0" />
        <mxCell id="ier6wwoYl22v-dt4Z4b1-96" value="&lt;b&gt;【Presentational Component】&lt;/b&gt;" style="rounded=1;whiteSpace=wrap;html=1;spacingLeft=10;spacingRight=10;" parent="1" vertex="1">
          <mxGeometry x="10" y="80" width="110" height="600" as="geometry" />
        </mxCell>
        <mxCell id="ier6wwoYl22v-dt4Z4b1-98" value="&lt;b&gt;【Action Creator】&lt;/b&gt;&lt;br&gt;&lt;br&gt;どんなActionなのかをreducerで判別できるようなtypeを付与。実行するAction TypeやAction実行時に必要な情報を内包したActionオブジェクトを返す" style="rounded=1;whiteSpace=wrap;html=1;spacingLeft=10;spacingRight=10;" parent="1" vertex="1">
          <mxGeometry x="560" y="520" width="240" height="160" as="geometry" />
        </mxCell>
        <mxCell id="ier6wwoYl22v-dt4Z4b1-99" value="&lt;b&gt;【Container Component】&lt;br&gt;&lt;/b&gt;&lt;br&gt;&lt;b&gt;mapStateToProps&lt;/b&gt; : Presentational Componentに渡すState（状態）オブジェクトを返す関数&lt;br&gt;&lt;br&gt;&lt;br&gt;&lt;b&gt;mapDispatchToProps&lt;/b&gt; : Presentational Componentに渡すActionオブジェクトを返す関数。dispatch(action)によってreducerが実行&lt;br&gt;&lt;br&gt;&lt;br&gt;&lt;b&gt;connect&lt;/b&gt; : mapStateToPropsとmapDispatchToPropsを引数にとってConnect関数を返し、返ってきた関数の引数にPresentational Componentを指定する（HOC）。Presentational ComponentとReduxを繋げる役割" style="rounded=1;whiteSpace=wrap;html=1;spacingLeft=10;spacingRight=10;" parent="1" vertex="1">
          <mxGeometry x="240" y="80" width="200" height="600" as="geometry" />
        </mxCell>
        <mxCell id="ier6wwoYl22v-dt4Z4b1-100" value="&lt;b&gt;【store】&lt;/b&gt;&lt;br&gt;&lt;br&gt;初期処理時にreducerとState初期値を受け取ってstoreが生成される" style="rounded=1;whiteSpace=wrap;html=1;spacingLeft=50;spacingRight=50;verticalAlign=top;spacingTop=145;" parent="1" vertex="1">
          <mxGeometry x="560" y="80" width="240" height="360" as="geometry" />
        </mxCell>
        <mxCell id="ier6wwoYl22v-dt4Z4b1-101" value="" style="endArrow=classic;html=1;exitX=0.996;exitY=0.866;exitDx=0;exitDy=0;exitPerimeter=0;" parent="1" source="ier6wwoYl22v-dt4Z4b1-96" edge="1">
          <mxGeometry width="50" height="50" relative="1" as="geometry">
            <mxPoint x="140" y="600" as="sourcePoint" />
            <mxPoint x="240" y="600" as="targetPoint" />
          </mxGeometry>
        </mxCell>
        <mxCell id="ier6wwoYl22v-dt4Z4b1-104" value="" style="endArrow=classic;html=1;entryX=-0.002;entryY=0.751;entryDx=0;entryDy=0;entryPerimeter=0;" parent="1" target="ier6wwoYl22v-dt4Z4b1-98" edge="1">
          <mxGeometry width="50" height="50" relative="1" as="geometry">
            <mxPoint x="440" y="640" as="sourcePoint" />
            <mxPoint x="520" y="640" as="targetPoint" />
          </mxGeometry>
        </mxCell>
        <mxCell id="ier6wwoYl22v-dt4Z4b1-105" value="" style="endArrow=classic;html=1;exitX=0;exitY=0.25;exitDx=0;exitDy=0;" parent="1" source="ier6wwoYl22v-dt4Z4b1-98" edge="1">
          <mxGeometry width="50" height="50" relative="1" as="geometry">
            <mxPoint x="520" y="560" as="sourcePoint" />
            <mxPoint x="440" y="560" as="targetPoint" />
          </mxGeometry>
        </mxCell>
        <mxCell id="ier6wwoYl22v-dt4Z4b1-117" value="Action Type" style="edgeLabel;html=1;align=center;verticalAlign=middle;resizable=0;points=[];" parent="ier6wwoYl22v-dt4Z4b1-105" vertex="1" connectable="0">
          <mxGeometry x="-0.0056" y="1" relative="1" as="geometry">
            <mxPoint as="offset" />
          </mxGeometry>
        </mxCell>
        <mxCell id="ier6wwoYl22v-dt4Z4b1-106" value="" style="endArrow=classic;html=1;entryX=-0.002;entryY=0.399;entryDx=0;entryDy=0;entryPerimeter=0;" parent="1" target="ier6wwoYl22v-dt4Z4b1-109" edge="1">
          <mxGeometry width="50" height="50" relative="1" as="geometry">
            <mxPoint x="440" y="360" as="sourcePoint" />
            <mxPoint x="520" y="360" as="targetPoint" />
          </mxGeometry>
        </mxCell>
        <mxCell id="ier6wwoYl22v-dt4Z4b1-116" value="dispatch" style="edgeLabel;html=1;align=center;verticalAlign=middle;resizable=0;points=[];" parent="ier6wwoYl22v-dt4Z4b1-106" vertex="1" connectable="0">
          <mxGeometry x="-0.1055" relative="1" as="geometry">
            <mxPoint as="offset" />
          </mxGeometry>
        </mxCell>
        <mxCell id="ier6wwoYl22v-dt4Z4b1-107" value="" style="endArrow=classic;html=1;exitX=-0.003;exitY=0.599;exitDx=0;exitDy=0;exitPerimeter=0;" parent="1" source="atwUggndU45nl5jZx6z6-1" edge="1">
          <mxGeometry width="50" height="50" relative="1" as="geometry">
            <mxPoint x="520" y="160" as="sourcePoint" />
            <mxPoint x="440" y="160" as="targetPoint" />
          </mxGeometry>
        </mxCell>
        <mxCell id="ier6wwoYl22v-dt4Z4b1-118" value="New State" style="edgeLabel;html=1;align=center;verticalAlign=middle;resizable=0;points=[];" parent="ier6wwoYl22v-dt4Z4b1-107" vertex="1" connectable="0">
          <mxGeometry x="0.0361" y="-3" relative="1" as="geometry">
            <mxPoint x="1.9199999999999982" as="offset" />
          </mxGeometry>
        </mxCell>
        <mxCell id="ier6wwoYl22v-dt4Z4b1-108" value="" style="endArrow=classic;html=1;entryX=1.003;entryY=0.133;entryDx=0;entryDy=0;entryPerimeter=0;" parent="1" target="ier6wwoYl22v-dt4Z4b1-96" edge="1">
          <mxGeometry width="50" height="50" relative="1" as="geometry">
            <mxPoint x="240" y="160" as="sourcePoint" />
            <mxPoint x="130" y="160" as="targetPoint" />
          </mxGeometry>
        </mxCell>
        <mxCell id="ier6wwoYl22v-dt4Z4b1-119" value="New State" style="edgeLabel;html=1;align=center;verticalAlign=middle;resizable=0;points=[];" parent="ier6wwoYl22v-dt4Z4b1-108" vertex="1" connectable="0">
          <mxGeometry x="-0.0446" y="1" relative="1" as="geometry">
            <mxPoint as="offset" />
          </mxGeometry>
        </mxCell>
        <mxCell id="ier6wwoYl22v-dt4Z4b1-109" value="&lt;b&gt;【reducer】&lt;/b&gt;&lt;br&gt;&lt;br&gt;&lt;b&gt;(prevState, action) =&amp;gt; newState&lt;/b&gt; : 古いStateとそのStateに対するActionを内包したオブジェクトを引数から受け取って新しい状態を返す" style="rounded=1;whiteSpace=wrap;html=1;align=center;spacingRight=10;spacingLeft=10;" parent="1" vertex="1">
          <mxGeometry x="520" y="320" width="320" height="100" as="geometry" />
        </mxCell>
        <mxCell id="atwUggndU45nl5jZx6z6-1" value="&lt;b&gt;【State】&lt;/b&gt;&lt;br&gt;&lt;div style=&quot;text-align: left&quot;&gt;1. preview&lt;/div&gt;&lt;div style=&quot;text-align: left&quot;&gt;2. new&lt;/div&gt;" style="rounded=1;whiteSpace=wrap;html=1;align=center;spacingRight=10;spacingLeft=10;" parent="1" vertex="1">
          <mxGeometry x="520" y="100" width="320" height="100" as="geometry" />
        </mxCell>
        <mxCell id="atwUggndU45nl5jZx6z6-2" value="" style="endArrow=classic;html=1;exitX=0.784;exitY=1;exitDx=0;exitDy=0;exitPerimeter=0;" parent="1" source="atwUggndU45nl5jZx6z6-1" edge="1">
          <mxGeometry width="50" height="50" relative="1" as="geometry">
            <mxPoint x="770" y="220" as="sourcePoint" />
            <mxPoint x="770" y="320" as="targetPoint" />
          </mxGeometry>
        </mxCell>
        <mxCell id="atwUggndU45nl5jZx6z6-6" value="preview" style="edgeLabel;html=1;align=center;verticalAlign=middle;resizable=0;points=[];" parent="atwUggndU45nl5jZx6z6-2" vertex="1" connectable="0">
          <mxGeometry x="-0.0777" y="-1" relative="1" as="geometry">
            <mxPoint as="offset" />
          </mxGeometry>
        </mxCell>
        <mxCell id="atwUggndU45nl5jZx6z6-5" value="" style="endArrow=classic;html=1;exitX=0.246;exitY=0.001;exitDx=0;exitDy=0;exitPerimeter=0;entryX=0.244;entryY=1.006;entryDx=0;entryDy=0;entryPerimeter=0;" parent="1" edge="1">
          <mxGeometry width="50" height="50" relative="1" as="geometry">
            <mxPoint x="590.7199999999998" y="320.1" as="sourcePoint" />
            <mxPoint x="590.0799999999999" y="200.5999999999999" as="targetPoint" />
          </mxGeometry>
        </mxCell>
        <mxCell id="atwUggndU45nl5jZx6z6-7" value="New" style="edgeLabel;html=1;align=center;verticalAlign=middle;resizable=0;points=[];" parent="atwUggndU45nl5jZx6z6-5" vertex="1" connectable="0">
          <mxGeometry x="0.0701" y="1" relative="1" as="geometry">
            <mxPoint as="offset" />
          </mxGeometry>
        </mxCell>
      </root>
    </mxGraphModel>
  </diagram>
</mxfile>
